<?xml version="1.0" standalone="no"?><!DOCTYPE svg PUBLIC "-//W3C//DTD SVG 1.1//EN" "http://www.w3.org/Graphics/SVG/1.1/DTD/svg11.dtd"><svg class="icon" width="200px" height="200.00px" viewBox="0 0 1024 1024" version="1.1" xmlns="http://www.w3.org/2000/svg"><path d="M905.955556 184.888889H118.044444C83.911111 184.888889 56.888889 214.755556 56.888889 253.155556V341.333333h910.222222v-88.177777c0-38.4-27.022222-68.266667-61.155555-68.266667zM56.888889 770.844444C56.888889 809.244444 83.911111 839.111111 118.044444 839.111111h786.488889c34.133333 0 61.155556-29.866667 61.155556-68.266667V426.666667H56.888889v344.177777z m762.311111-270.222222c0-2.844444 0-5.688889 1.422222-7.111111 0-1.422222 1.422222-4.266667 2.844445-5.688889s2.844444-2.844444 5.688889-2.844444H881.777778c4.266667 0 8.533333 0 11.377778 1.422222s5.688889 1.422222 7.111111 4.266667 4.266667 4.266667 5.688889 5.688889 2.844444 2.844444 2.844444 5.688888 1.422222 4.266667 1.422222 5.688889 0 2.844444 1.422222 5.688889 0 4.266667 0 7.111111 0 5.688889-1.422222 9.955556-1.422222 7.111111-2.844444 9.955555-2.844444 4.266667-4.266667 5.688889-2.844444 2.844444-4.266667 2.844445-4.266667 1.422222-7.111111 2.844444-7.111111 1.422222-9.955555 1.422222h-29.866667c-2.844444 0-4.266667 0-5.688889 1.422223s-1.422222 2.844444-1.422222 7.111111v15.644444c0 2.844444 0 4.266667-1.422222 5.688889s-2.844444 0-5.688889 0-4.266667 1.422222-7.111111 1.422222H824.888889c-1.422222 0-2.844444-1.422222-4.266667-2.844444s-1.422222-2.844444-1.422222-4.266667v-76.8z m-45.511111-4.266666v-5.688889c0-1.422222 1.422222-2.844444 1.422222-4.266667s2.844444-1.422222 5.688889-2.844444 5.688889 0 9.955556 0c2.844444 0 4.266667 1.422222 5.688888 2.844444l2.844445 2.844444c1.422222 1.422222 1.422222 2.844444 1.422222 4.266667v83.911111c0 2.844444-1.422222 2.844444-4.266667 4.266667s-5.688889 1.422222-8.533333 1.422222c-4.266667 0-5.688889 0-8.533333-1.422222s-2.844444-2.844444-4.266667-4.266667-1.422222-4.266667-1.422222-7.111111v-73.955555z m-106.666667-8.533334c1.422222-1.422222 2.844444-2.844444 5.688889-4.266666s4.266667-1.422222 7.111111-1.422223c1.422222 0 4.266667 0 5.688889 1.422223s2.844444 4.266667 5.688889 9.955555l18.488889 45.511111c0 1.422222 0 1.422222 1.422222 1.422222h1.422222c1.422222 0 1.422222 0 1.422223-1.422222s1.422222-1.422222 1.422222-4.266666l18.488889-48.355556c1.422222-1.422222 1.422222-2.844444 2.844444-4.266667s2.844444-1.422222 5.688889-1.422222 5.688889 0 8.533333 1.422222 4.266667 2.844444 5.688889 4.266667 2.844444 2.844444 2.844445 4.266667 0 4.266667-1.422223 5.688889l-28.444444 69.688888c-1.422222 4.266667-2.844444 7.111111-4.266667 8.533334s-1.422222 2.844444-2.844444 4.266666-2.844444 1.422222-4.266667 1.422223h-5.688889c-2.844444 0-4.266667 0-5.688889-1.422223s-2.844444-1.422222-4.266666-2.844444-2.844444-2.844444-2.844445-4.266667l-32.711111-75.377777c-1.422222-2.844444-1.422222-4.266667-1.422222-5.688889s0-1.422222 1.422222-2.844445z" fill="#333333" /><path d="M850.488889 529.066667h27.022222c1.422222 0 4.266667-1.422222 5.688889-2.844445s2.844444-4.266667 2.844444-7.111111-1.422222-5.688889-2.844444-7.111111-2.844444-1.422222-4.266667-2.844444-4.266667 0-7.111111 0h-22.755555c-1.422222 0-2.844444 0-4.266667 1.422222s-1.422222 1.422222-1.422222 4.266666v11.377778c0 1.422222 0 1.422222 1.422222 2.844445s2.844444 0 5.688889 0z" fill="#333333" /></svg>